# xmcd CD database file
#
# Track frame offsets:
#	150
#	30450
#	61584
#	101500
#	129050
#	156052
#	184931
#	194761
#	217562
#
# Disc length: 3133 seconds
#
# Revision: 0
# Processed by: cddbd v1.5.2PL0 Copyright (c) Steve Scherf et al.
# Submitted via: CDex 1.51
#
DISCID=690c3b09
DTITLE=Tobias Hoffmann Trio - Tobias Hoffmann Trio
DYEAR=2006
DGENRE=Jazz
TTITLE0=end 4
TTITLE1=the two millions
TTITLE2=joe dalton
TTITLE3=don´t panic
TTITLE4=irving
TTITLE5=junimond
TTITLE6=mr. soans
TTITLE7=radio an
TTITLE8=guten abend, gute nacht
EXTD=YEAR: 2006
EXTT0=
EXTT1=
EXTT2=
EXTT3=
EXTT4=
EXTT5=
EXTT6=
EXTT7=
EXTT8=
PLAYORDER=
